<svg width="14" height="14" viewBox="0 0 14 14" fill="none" xmlns="http://www.w3.org/2000/svg">
<path d="M11.666 4.08325H2.33268C1.68835 4.08325 1.16602 4.60559 1.16602 5.24992V11.0833C1.16602 11.7276 1.68835 12.2499 2.33268 12.2499H11.666C12.3103 12.2499 12.8327 11.7276 12.8327 11.0833V5.24992C12.8327 4.60559 12.3103 4.08325 11.666 4.08325Z" stroke="black" stroke-linecap="round" stroke-linejoin="round"/>
<path d="M9.33268 12.25V2.91667C9.33268 2.60725 9.20977 2.3105 8.99097 2.09171C8.77218 1.87292 8.47543 1.75 8.16602 1.75H5.83268C5.52326 1.75 5.22652 1.87292 5.00772 2.09171C4.78893 2.3105 4.66602 2.60725 4.66602 2.91667V12.25" stroke="black" stroke-linecap="round" stroke-linejoin="round"/>
</svg>
