<svg width="28" height="28" viewBox="0 0 28 28" fill="none" xmlns="http://www.w3.org/2000/svg">
<path d="M5.54102 9.33398H8.45768" stroke="black" stroke-width="1.5" stroke-linecap="round" stroke-linejoin="round"/>
<path d="M14.875 9.33398H22.4583" stroke="black" stroke-width="1.5" stroke-linecap="round" stroke-linejoin="round"/>
<path d="M5.54102 18.666H14.291" stroke="black" stroke-width="1.5" stroke-linecap="round" stroke-linejoin="round"/>
<path d="M20.709 18.666H22.459" stroke="black" stroke-width="1.5" stroke-linecap="round" stroke-linejoin="round"/>
<path d="M14.291 9.33398C14.291 10.7837 13.1158 11.959 11.666 11.959C10.2163 11.959 9.04102 10.7837 9.04102 9.33398C9.04102 7.88424 10.2163 6.70898 11.666 6.70898C13.1158 6.70898 14.291 7.88424 14.291 9.33398Z" stroke="black" stroke-width="1.5" stroke-linecap="round" stroke-linejoin="round"/>
<path d="M20.125 18.666C20.125 20.1158 18.9497 21.291 17.5 21.291C16.0503 21.291 14.875 20.1158 14.875 18.666C14.875 17.2163 16.0503 16.041 17.5 16.041C18.9497 16.041 20.125 17.2163 20.125 18.666Z" stroke="black" stroke-width="1.5" stroke-linecap="round" stroke-linejoin="round"/>
</svg>
