<svg width="20" height="20" viewBox="0 0 20 20" fill="none" xmlns="http://www.w3.org/2000/svg">
<path d="M3.95898 6.66663H6.04232" stroke="black" stroke-width="1.5" stroke-linecap="round" stroke-linejoin="round"/>
<path d="M10.625 6.66663H16.0417" stroke="black" stroke-width="1.5" stroke-linecap="round" stroke-linejoin="round"/>
<path d="M3.95898 13.3334H10.209" stroke="black" stroke-width="1.5" stroke-linecap="round" stroke-linejoin="round"/>
<path d="M14.791 13.3334H16.041" stroke="black" stroke-width="1.5" stroke-linecap="round" stroke-linejoin="round"/>
<path d="M10.209 6.66663C10.209 7.70216 9.36952 8.54163 8.33398 8.54163C7.29845 8.54163 6.45898 7.70216 6.45898 6.66663C6.45898 5.63109 7.29845 4.79163 8.33398 4.79163C9.36952 4.79163 10.209 5.63109 10.209 6.66663Z" stroke="black" stroke-width="1.5" stroke-linecap="round" stroke-linejoin="round"/>
<path d="M14.375 13.3334C14.375 14.3689 13.5355 15.2084 12.5 15.2084C11.4645 15.2084 10.625 14.3689 10.625 13.3334C10.625 12.2978 11.4645 11.4584 12.5 11.4584C13.5355 11.4584 14.375 12.2978 14.375 13.3334Z" stroke="black" stroke-width="1.5" stroke-linecap="round" stroke-linejoin="round"/>
</svg>
