<svg width="14" height="14" viewBox="0 0 14 14" fill="none" xmlns="http://www.w3.org/2000/svg">
<path d="M1.75 3.5H2.91667H12.25" stroke="#6B7280" stroke-linecap="round" stroke-linejoin="round"/>
<path d="M4.66675 3.49996V2.33329C4.66675 2.02387 4.78966 1.72713 5.00846 1.50833C5.22725 1.28954 5.524 1.16663 5.83341 1.16663H8.16675C8.47617 1.16663 8.77291 1.28954 8.99171 1.50833C9.2105 1.72713 9.33341 2.02387 9.33341 2.33329V3.49996M11.0834 3.49996V11.6666C11.0834 11.976 10.9605 12.2728 10.7417 12.4916C10.5229 12.7104 10.2262 12.8333 9.91675 12.8333H4.08341C3.774 12.8333 3.47725 12.7104 3.25846 12.4916C3.03966 12.2728 2.91675 11.976 2.91675 11.6666V3.49996H11.0834Z" stroke="#6B7280" stroke-linecap="round" stroke-linejoin="round"/>
<path d="M5.83325 6.41663V9.91663" stroke="#6B7280" stroke-linecap="round" stroke-linejoin="round"/>
<path d="M8.16675 6.41663V9.91663" stroke="#6B7280" stroke-linecap="round" stroke-linejoin="round"/>
</svg>
